<?xml version="1.0" encoding="UTF-8" standalone="no"?>
<!-- Created with Inkscape (http://www.inkscape.org/) -->

<svg
   xmlns:svg="http://www.w3.org/2000/svg"
   xmlns:xlink="http://www.w3.org/1999/xlink"
   xmlns="http://www.w3.org/2000/svg"
   version="1.1"
   width="100%" height="100%" style="background-color:#201020;"
   >
   <script xlink:href="Nifty.js" />
  <g stroke="#924992" fill="none" stroke-width="2" id="T">
      <path
         d="m 43.100184,87.077766 c 1.943998,0.144 2.952001,0.216 3.96,0.216 3.095997,0 5.040002,-0.432001 6.912,-1.584 3.527997,-2.087997 7.128003,-7.272006 9.432,-13.32 1.151999,-3.095996 1.584003,-4.680012 4.68,-17.136 l 2.664,11.16 c 2.087998,8.927991 3.816003,14.184005 6.264,19.08 4.391996,8.927991 10.728009,13.32 19.224,13.32 3.671997,0 6.264006,-0.648001 9.503996,-2.52 l -1.728,-6.408 c -1.00799,2.375998 -1.512,3.384001 -2.448,4.464 -1.29599,1.583999 -3.095997,2.52 -4.895996,2.52 -4.535995,0 -8.712003,-3.528007 -12.384,-10.512 1.223999,-6.191993 1.872002,-9.000007 3.672,-16.56 3.095997,-12.527987 4.680003,-17.712004 6.984,-22.464 1.511999,-3.023997 3.240004,-4.176 6.551996,-4.176 0.504,0 0.93601,10e-7 1.944,0.144 l 2.664,-4.824 c -0.86399,-0.072 -1.656,-0.144 -2.232,-0.144 -3.02399,0 -6.263999,2.088005 -10.007996,6.48 -3.455996,4.031996 -4.752003,7.704016 -8.28,23.256 -0.719999,3.383997 -1.512,6.768004 -2.304,10.224 -0.072,0.36 -0.432,1.872003 -1.08,4.104 -3.455996,-6.911993 -4.392007,-9.720028 -12.024,-38.232 l -2.448,2.232 c -1.727998,-0.143999 -2.664001,-0.216 -3.96,-0.216 -4.319995,0 -6.912002,0.792002 -9.504,2.808 -4.607995,3.599997 -7.776,8.784004 -7.776,12.744 0,1.799999 0.504002,3.672003 1.8,6.336 l 4.968,-3.384 c -1.799998,-3.815996 -2.304,-5.472001 -2.304,-7.272 0,-2.159997 1.224002,-4.104001 3.24,-5.184 1.727999,-0.935999 3.456004,-1.224 6.696,-1.224 1.511999,0 2.808003,10e-7 5.544,0.144 -3.383996,14.471986 -6.120002,23.544005 -8.496,27.792 -1.511998,2.663998 -3.096003,3.456 -6.912,3.456 -1.367998,0 -2.448002,-0.072 -4.464,-0.288 l -3.456,4.968"
         id="path3157" />
      <path
         d="m 107.98793,51.509766 c 2.088,-1.871998 2.23201,-2.016001 4.68,-3.888 -0.432,-0.863999 -0.792,-1.44 -0.936,-1.656 -0.432,-0.863999 -0.504,-0.936001 -1.08,-2.304 -0.144,-0.287999 -0.288,-0.576 -0.432,-0.936 -0.36,0.288 -0.792,0.576001 -1.008,0.792 -0.288,0.288 -0.864,0.720001 -1.584,1.296 -0.36,0.288 -0.864,0.648001 -1.512,1.08 -0.288,0.216 -0.576,0.432001 -0.864,0.576 0.504,1.583999 1.15201,2.736003 2.736,5.04 m 4.968,27.216 c -6.83999,3.671997 -6.984,3.744 -7.92,3.744 -0.79199,0 -1.296,-0.792001 -1.296,-2.016 0,-0.719999 0.216,-2.088001 0.648,-3.672 3.672,-15.119984 4.392,-18 4.392,-18.576 0,-0.431999 -0.36,-0.72 -0.864,-0.72 -1.22399,0 -5.472,2.376004 -11.375996,6.336 l -0.144,2.016 c 4.247996,-2.303997 4.607996,-2.448 5.255996,-2.448 0.576,0 0.864,0.432001 0.864,1.296 0,0.935999 -0.216,1.944005 -1.296,6.048 -3.383992,12.599988 -3.383996,12.600002 -3.383996,14.4 0,1.727999 0.720001,2.88 1.728,2.88 1.223996,0 3.168006,-0.936002 6.983996,-3.384 1.368,-0.863999 2.73601,-1.728001 4.104,-2.664 0.648,-0.359999 1.29601,-0.792 2.016,-1.224 l 0.288,-2.016"
         id="path3159" />
      <path
         d="m 133.06081,64.613766 c 0.216,0 0.648,0 1.44,0.072 l 2.952,-2.304 c -3.744,-0.072 -3.744,-0.072 -4.536,-0.072 -0.864,0 -0.864,0 -4.248,0.072 4.67999,-18.287981 5.76,-20.52 10.008,-20.52 1.224,0 2.16,0.144001 4.824,0.576 l 3.312,-3.888 c -1.44,-0.359999 -2.016,-0.432 -3.456,-0.432 -4.32,0 -7.34401,1.584005 -12.168,6.264 -4.032,3.887997 -4.968,6.048012 -7.776,18 -0.72,-0.072 -1.08,-0.072 -1.44,-0.072 l -3.528,0.144 c -0.144,0 -0.504,0 -1.08,-0.072 -0.432,0.288 -0.864,0.576 -1.008,0.648 l -1.584,0.864 c -0.288,0.144 -0.864,0.432001 -1.44,0.792 l 1.8,0 c 0,0 5.04,0.072 5.04,0.072 0.432,0 1.224,0 2.664,-0.072 -1.152,4.391996 -1.584,6.336007 -2.952,12.6 -4.32,19.799981 -5.97601,23.040004 -12.096,23.040004 -1.008,0 -1.872,-0.072 -3.816,-0.360004 -0.72,1.080004 -0.936,1.440004 -1.44,2.088004 -0.576,0.792 -1.224,1.584 -1.8,2.448 1.584,0.216 2.376,0.288 3.528,0.288 2.376,0 4.248,-0.36 5.4,-1.008 2.088,-1.152 5.76,-4.680006 7.704,-7.200004 2.232,-3.023997 4.824,-9.216006 6.48,-15.768 3.096,-11.735988 3.888,-14.688001 4.248,-16.128 0.648,0.072 0.936,0.072 1.224,0.072 l 3.744,-0.144"
         id="path3161" />
      <path
         d="m 157.05931,78.005766 c -5.472,3.239997 -7.776,4.464 -8.784,4.464 -0.936,0 -2.088,-1.872001 -2.088,-3.384 0,-1.007999 1.224,-6.552007 3.096,-14.112 1.008,-0.072 1.728,-0.072 2.088,-0.072 l 2.88,-0.072 c 0.288,0 1.008,-0.072 2.16,-0.216 l 2.736,-2.088 -9.216,0 2.88,-11.664 c -1.368,0.72 -1.944,0.936001 -3.024,1.44 -0.504,0.288 -1.08,0.504001 -1.656,0.792 -0.288,0.144 -0.648,0.288001 -1.008,0.432 l -2.016,9 c -0.648,0.072 -1.08,0.072 -1.296,0.072 l -1.728,0 c -0.144,0 -0.504,0 -1.08,0.072 -0.792,0.504 -0.864,0.504001 -2.088,1.512 -0.216,0.144 -0.576,0.432001 -1.08,0.792 l 1.728,0 3.312,0 1.584,0 c -3.816,15.983984 -3.816,15.984003 -3.816,18.216 0,2.303998 1.512,4.824 2.88,4.824 1.584,0 6.48001,-3.024005 13.392,-8.208 l 0.144,-1.8"
         id="path3163" />
      <path
         d="m 154.77781,104.42977 c 2.232,0.288 5.4,0.504 7.92,0.504 5.03999,0 7.92,-1.36801 12.024,-5.760004 4.176,-4.463995 4.464,-5.256011 6.984,-16.992 2.52,-11.591988 3.888,-16.992008 6.336,-24.984 -0.936,0.504 -1.728,0.936001 -2.016,1.08 l -2.52,1.224 c -0.36,0.216 -0.936,0.432001 -1.584,0.792 l -4.392,17.496 c -7.19999,4.463996 -7.56,4.68 -8.784,4.68 -0.936,0 -1.584,-1.008001 -1.584,-2.304 0,-1.583998 0.648,-4.896005 2.016,-10.008 1.8,-7.127992 2.808,-11.16 2.808,-11.808 0,-0.503999 -0.36,-0.864 -0.792,-0.864 -0.792,0 -5.40001,2.448004 -11.448,6.048 l -0.216,1.944 c 3.384,-1.727998 4.176,-2.088 4.968,-2.088 0.72,0 1.08,0.432001 1.08,1.08 0,1.295999 -0.504,3.456007 -2.232,9.792 -1.728,6.263994 -2.088,7.848002 -2.088,9.72 0,2.303998 1.08,4.032 2.52,4.032 1.368,0 7.12801,-3.456004 13.536,-8.064 -2.736,13.175987 -2.736,13.176003 -3.6,15.84 -1.152,3.671997 -3.45601,5.040004 -8.136,5.040004 -2.088,0 -3.672,-0.288 -7.92,-1.296004 l -2.88,4.896004"
         id="path3165" />
      <path
         d="m 186.91793,94.133766 c 8.424,-7.271992 9.72001,-9.43201 11.376,-19.512 -2.59199,0.792 -2.664,0.864001 -5.184,1.584 -0.648,8.063992 -2.664,12.240005 -8.136,17.136 l 1.944,0.792"
         id="path3167" />
      <path
         d="m 227.4333,98.320663 4.7461,-3.972656 c 1.96872,-1.593757 3.21091,-4.570317 3.72656,-8.929687 0.53904,-4.359371 0.80857,-9.10546 0.80859,-14.238282 -2e-5,-1.289047 -0.2344,-5.132793 -0.70312,-11.53125 -2.34377,-1.781222 -4.46487,-2.671846 -6.36328,-2.671875 -0.86721,2.9e-5 -3.09377,1.207059 -6.67969,3.621094 l 0,15.75 c 0.28124,0.562508 0.8203,1.406258 1.61719,2.53125 0.79686,1.101568 1.42967,1.992192 1.89844,2.671875 l -5.90625,5.378906 c -0.53908,-1.03125 -1.25392,-2.273437 -2.14454,-3.726562 -0.86719,-1.476559 -1.46485,-2.414058 -1.79296,-2.8125 0.56249,-8.718737 0.84374,-17.402322 0.84375,-26.050781 -1e-5,-6.351526 -0.16407,-12.281207 -0.49219,-17.789063 l 0.84375,-0.210937 1.75781,5.519531 8.68359,-6.398438 1.23047,0.878907 c -1.92189,1.664109 -3.4922,3.585982 -4.71093,5.765625 -1.21877,2.179728 -1.82814,4.429726 -1.82813,6.75 l 0,9.492187 c 1.52342,-1.195284 5.0742,-3.761688 10.65234,-7.699219 1.99217,1.851596 4.78123,3.316438 8.36719,4.394532 0.28122,5.484399 0.42185,9.585958 0.42188,12.304687 -3e-5,2.929702 -0.0352,5.402356 -0.10547,7.417969 -0.0703,2.015633 -0.24613,4.148444 -0.52735,6.398437 -0.28128,2.250002 -0.69143,4.289063 -1.23046,6.117188 -1.12503,1.499996 -2.28519,2.929682 -3.48047,4.289062 -1.1719,1.359368 -2.43753,2.753897 -3.79688,4.183594 -1.35939,1.429676 -2.70705,2.812487 -4.04297,4.148438 l -1.79297,-1.582032"
         id="path3148" />
      <path
         d="m 252.67549,81.621445 c 2.15625,-2.249995 3.23437,-7.441396 3.23438,-15.574219 -1e-5,-4.593726 -0.91407,-7.757786 -2.74219,-9.492188 l -2.8125,1.441407 -1.08984,-0.738282 8.01562,-6.328125 c 1.45312,1.781283 2.6953,3.058625 3.72656,3.832032 l 0,5.027343 c -10e-6,3.984397 -0.1172,7.335956 -0.35156,10.054688 -0.21095,2.718762 -0.69142,5.320322 -1.44141,7.804687 l 7.06641,3.304688 6.53906,-3.585938 c 0.18748,-3.281239 0.28123,-6.902329 0.28125,-10.863281 -2e-5,-4.031227 -0.0703,-8.015598 -0.21093,-11.953125 l 6.04687,-3.164062 0.49219,0.492187 c -0.75003,6.656277 -1.12503,12.339865 -1.125,17.050781 -3e-5,6.773447 1.03122,10.160163 3.09375,10.160157 0.44528,6e-6 1.7109,-0.480463 3.79687,-1.441407 l 0.45703,1.089844 c -1.24222,0.984381 -2.69534,2.203129 -4.35937,3.65625 -1.64066,1.453126 -3.09378,2.777344 -4.35938,3.972656 l -0.59765,-0.140625 c -0.91409,-2.414061 -2.13284,-4.675777 -3.65625,-6.785156 -4.21877,2.156254 -7.45314,4.371095 -9.70313,6.644531 -0.46876,0.421874 -0.83204,0.632811 -1.08984,0.632813 -0.25783,-2e-6 -0.57423,-0.140627 -0.94922,-0.421875 -1.54689,-1.195313 -2.94142,-2.179687 -4.18359,-2.953125 -1.2422,-0.796873 -2.60157,-1.371091 -4.07813,-1.722656"
         id="path3150" />
      <path
         d="m 302.2458,98.320663 4.7461,-3.972656 c 1.96872,-1.593757 3.21091,-4.570317 3.72656,-8.929687 0.53904,-4.359371 0.80857,-9.10546 0.80859,-14.238282 -2e-5,-1.289047 -0.2344,-5.132793 -0.70312,-11.53125 -2.34377,-1.781222 -4.46487,-2.671846 -6.36328,-2.671875 -0.86721,2.9e-5 -3.09377,1.207059 -6.67969,3.621094 l 0,15.75 c 0.28124,0.562508 0.8203,1.406258 1.61719,2.53125 0.79686,1.101568 1.42967,1.992192 1.89844,2.671875 l -5.90625,5.378906 c -0.53908,-1.03125 -1.25392,-2.273437 -2.14454,-3.726562 -0.86719,-1.476559 -1.46485,-2.414058 -1.79296,-2.8125 0.56249,-8.718737 0.84374,-17.402322 0.84375,-26.050781 -10e-6,-6.351526 -0.16407,-12.281207 -0.49219,-17.789063 l 0.84375,-0.210937 1.75781,5.519531 8.68359,-6.398438 1.23047,0.878907 c -1.92189,1.664109 -3.4922,3.585982 -4.71093,5.765625 -1.21877,2.179728 -1.82814,4.429726 -1.82813,6.75 l 0,9.492187 c 1.52342,-1.195284 5.0742,-3.761688 10.65234,-7.699219 1.99217,1.851596 4.78123,3.316438 8.36719,4.394532 0.28122,5.484399 0.42185,9.585958 0.42188,12.304687 -3e-5,2.929702 -0.0352,5.402356 -0.10547,7.417969 -0.0703,2.015633 -0.24613,4.148444 -0.52735,6.398437 -0.28128,2.250002 -0.69143,4.289063 -1.23046,6.117188 -1.12503,1.499996 -2.28519,2.929682 -3.48047,4.289062 -1.1719,1.359368 -2.43753,2.753897 -3.79688,4.183594 -1.35939,1.429676 -2.70705,2.812487 -4.04297,4.148438 l -1.79297,-1.582032"
         id="path3152" />
      <path
         d="m 335.32784,85.875351 c -1.12502,-10e-7 -2.08595,-0.421875 -2.88282,-1.265625 -0.77344,-0.843749 -1.16016,-1.816404 -1.16015,-2.917969 -1e-5,-1.101558 0.36327,-2.050776 1.08984,-2.847656 0.72655,-0.796868 1.61718,-1.195305 2.67188,-1.195313 1.10154,8e-6 2.05076,0.35157 2.84765,1.054688 0.8203,0.679693 1.23045,1.582036 1.23047,2.707031 -2e-5,1.14844 -0.35158,2.179689 -1.05469,3.09375 -0.70314,0.914062 -1.6172,1.371093 -2.74218,1.371094 m -4.7461,-18.808594 c -1e-5,-1.335918 0.80859,-2.89451 2.42578,-4.675781 1.61718,-1.804663 3.2578,-3.386693 4.92188,-4.746094 1.87498,-1.640596 3.3867,-3.468719 4.53515,-5.484375 1.14842,-2.01559 1.72264,-4.124963 1.72266,-6.328125 -2e-5,-1.335897 -0.31643,-2.589802 -0.94922,-3.761719 -0.60939,-1.195268 -1.46486,-2.156204 -2.5664,-2.882812 -1.07815,-0.749953 -2.26174,-1.124953 -3.55079,-1.125 -1.50001,4.7e-5 -2.84766,0.398484 -4.04296,1.195312 -1.19533,0.79692 -1.79298,1.933638 -1.79297,3.410157 -1e-5,1.757853 0.77343,3.246133 2.32031,4.464843 l -4.39453,2.636719 c -1.59376,-1.195276 -2.39063,-2.800743 -2.39063,-4.816406 0,-1.476521 0.43359,-2.835895 1.30078,-4.078125 0.86719,-1.26558 1.94531,-2.308547 3.23438,-3.128906 1.31249,-0.820265 2.73046,-1.453077 4.25391,-1.898438 1.52342,-0.445263 2.98826,-0.667919 4.39453,-0.667969 2.83591,5e-5 5.08591,0.832081 6.75,2.496094 1.68747,1.640671 2.53122,3.87895 2.53125,6.714844 -3e-5,4.312536 -2.75393,8.871126 -8.26172,13.675781 -1.92189,1.664088 -3.39845,3.03518 -4.42969,4.113281 -1.03126,1.078147 -1.54689,2.156271 -1.54687,3.234375 -2e-5,0.773457 0.21092,1.535175 0.63281,2.285157 0.42186,0.750016 0.99608,1.335953 1.72265,1.757812 l -3.30468,2.355469 c -0.96095,-0.398424 -1.79298,-1.019517 -2.4961,-1.863281 -0.67969,-0.867172 -1.01954,-1.828108 -1.01953,-2.882813"
         id="path3154" />
  </g>
</svg>
